<svg xmlns="http://www.w3.org/2000/svg" viewBox="0 0 384 512">
<path fill="#000000" d="M318.7 268.7c-.2-36.7 16.4-64.4 50-84.8-18.8-26.9-47.2-41.7-84.7-44.6-35.5-2.8-74.3 20.7-88.5 20.7-15 0-49.4-19.7-76.4-19.7C63.3 141.2 4 184.8 4 273.5q0 39.3 14.4 81.2c12.8 36.7 59 126.7 107.2 119.2 37.5-3.7 35.8-31.5 76.5-31.5 29.8 0 46 29.8 77.2 31.5 44 2.4 82.2-76 92.5-126.5-63.5-26.1-93.5-84.7-53.1-78.7Zm-114-147.2c25.4-32.9 44.4-64 36.9-106.6-34.3 0-66 26.5-90.1 53-22.9 29.2-44.6 62.4-35.1 103.7 39.2 6 72.4-23.7 88.3-50.1Z"/>
</svg>